<svg width="1515" height="1313" viewBox="0 0 1515 1313" fill="none" xmlns="http://www.w3.org/2000/svg">
<g opacity="0.2" clip-path="url(#clip0_3_106)">
<path d="M1297.01 793.936C1251.35 774.95 1198.97 796.633 1179.98 842.293C1161 887.953 1182.56 940.385 1228.22 959.371C1273.97 978.391 1326.43 956.743 1345.42 911.083C1364.4 865.423 1342.76 812.957 1297.01 793.936ZM1235.18 942.862C1198.62 927.659 1181.32 885.733 1196.53 849.172C1211.73 812.611 1253.66 795.312 1290.22 810.514C1326.78 825.717 1344.08 867.643 1328.87 904.204C1313.67 940.765 1271.75 958.064 1235.18 942.862ZM1295.09 880.454C1301.96 883.309 1309.8 880.072 1312.66 873.206C1315.51 866.341 1312.27 858.494 1305.41 855.639C1298.54 852.785 1290.7 856.022 1287.84 862.888C1284.99 869.753 1288.23 877.6 1295.09 880.454ZM1237.19 856.378C1244.05 859.233 1251.9 855.995 1254.76 849.13C1257.61 842.264 1254.37 834.418 1247.51 831.563C1240.64 828.708 1232.79 831.946 1229.94 838.811C1227.09 845.677 1230.32 853.523 1237.19 856.378ZM1243.78 922.183C1260.57 929.165 1279.03 926.071 1292.53 915.773C1295.24 913.697 1294.7 909.397 1291.47 908.056L1220.17 878.407C1217.03 877.1 1213.51 879.714 1213.95 883.098C1216.17 899.931 1226.99 915.2 1243.78 922.183Z" fill="#FFD336"/>
</g>
<g opacity="0.2" clip-path="url(#clip1_3_106)">
<path d="M104.424 386.645C60.0697 408.509 41.8974 462.212 63.7613 506.566C85.6253 550.92 139.287 569.212 183.641 547.348C228.075 525.444 246.328 471.702 224.464 427.348C202.6 382.995 148.858 364.742 104.424 386.645ZM175.8 531.238C140.284 548.745 97.3386 534.159 79.8316 498.644C62.3246 463.129 76.9105 420.183 112.426 402.676C147.941 385.169 190.887 399.755 208.394 435.27C225.901 470.785 211.315 513.731 175.8 531.238ZM168.275 445.059C174.944 441.771 177.674 433.734 174.386 427.065C171.099 420.396 163.061 417.666 156.392 420.954C149.723 424.241 146.993 432.278 150.281 438.947C153.568 445.617 161.606 448.346 168.275 445.059ZM112.029 472.785C118.698 469.497 121.428 461.46 118.14 454.791C114.853 448.122 106.815 445.392 100.146 448.68C93.4771 451.967 90.7473 460.004 94.0348 466.674C97.3223 473.343 105.36 476.072 112.029 472.785ZM165.897 511.15C182.209 503.11 192.034 487.18 193.172 470.24C193.391 466.835 189.799 464.411 186.666 465.956L117.403 500.099C114.35 501.604 114.004 505.969 116.838 507.868C130.967 517.283 149.586 519.191 165.897 511.15Z" fill="#FFD336"/>
</g>
<g opacity="0.2" clip-path="url(#clip2_3_106)">
<path d="M242.436 1092.35C204.556 1124.14 199.679 1180.63 231.465 1218.51C263.252 1256.39 319.725 1261.39 357.605 1229.6C395.554 1197.76 400.499 1141.22 368.713 1103.34C336.926 1065.46 280.385 1060.51 242.436 1092.35ZM346.157 1215.82C315.825 1241.27 270.643 1237.32 245.19 1206.99C219.738 1176.66 223.69 1131.47 254.022 1106.02C284.353 1080.57 329.536 1084.52 354.988 1114.85C380.44 1145.19 376.488 1190.37 346.157 1215.82ZM318.349 1133.9C324.045 1129.12 324.784 1120.67 320.005 1114.97C315.225 1109.28 306.769 1108.54 301.074 1113.32C295.378 1118.1 294.638 1126.55 299.418 1132.25C304.197 1137.94 312.653 1138.68 318.349 1133.9ZM270.312 1174.21C276.008 1169.43 276.748 1160.98 271.968 1155.28C267.189 1149.59 258.733 1148.85 253.037 1153.63C247.341 1158.41 246.602 1166.86 251.381 1172.56C256.161 1178.25 264.617 1178.99 270.312 1174.21ZM331.761 1198.66C345.691 1186.97 351.446 1169.16 348.521 1152.44C347.925 1149.08 343.859 1147.58 341.183 1149.83L282.029 1199.46C279.422 1201.65 280.124 1205.97 283.329 1207.15C299.292 1212.93 317.83 1210.35 331.761 1198.66Z" fill="#FFD336"/>
</g>
<g opacity="0.2" clip-path="url(#clip3_3_106)">
<path d="M1291.11 100.072C1264.4 141.688 1276.54 197.065 1318.16 223.775C1359.78 250.484 1415.18 238.462 1441.89 196.846C1468.65 155.154 1456.55 99.7013 1414.93 72.9917C1373.32 46.2822 1317.86 58.3803 1291.11 100.072ZM1426.86 187.093C1405.47 220.416 1361.16 230.084 1327.84 208.697C1294.51 187.31 1284.85 142.997 1306.23 109.674C1327.62 76.3507 1371.93 66.6831 1405.26 88.07C1438.58 109.457 1448.25 153.77 1426.86 187.093ZM1375.94 117.158C1379.96 110.9 1378.15 102.607 1371.89 98.5908C1365.63 94.5747 1357.34 96.384 1353.33 102.642C1349.31 108.899 1351.12 117.192 1357.38 121.208C1363.63 125.224 1371.93 123.415 1375.94 117.158ZM1342.07 169.932C1346.09 163.674 1344.28 155.381 1338.02 151.365C1331.76 147.349 1323.47 149.158 1319.45 155.416C1315.44 161.673 1317.25 169.966 1323.51 173.982C1329.76 177.998 1338.06 176.189 1342.07 169.932ZM1408.01 174.996C1417.83 159.692 1418.03 140.976 1410.26 125.879C1408.69 122.849 1404.37 122.627 1402.48 125.567L1360.77 190.554C1358.93 193.419 1360.89 197.336 1364.3 197.501C1381.26 198.274 1398.19 190.301 1408.01 174.996Z" fill="#FFD336"/>
</g>
<defs>
<clipPath id="clip0_3_106">
<rect width="215" height="215" fill="white" transform="translate(1204.55 736.084) rotate(22.5782)"/>
</clipPath>
<clipPath id="clip1_3_106">
<rect width="215" height="215" fill="white" transform="translate(0 418.145) rotate(-26.2407)"/>
</clipPath>
<clipPath id="clip2_3_106">
<rect width="215" height="215" fill="white" transform="translate(148.502 1147.79) rotate(-40.0011)"/>
</clipPath>
<clipPath id="clip3_3_106">
<rect width="215" height="215" fill="white" transform="translate(1217.92 180.94) rotate(-57.3074)"/>
</clipPath>
</defs>
</svg>
