<svg width="1515" height="1314" viewBox="0 0 1515 1314" fill="none" xmlns="http://www.w3.org/2000/svg">
<g opacity="0.2" clip-path="url(#clip0_3_105)">
<path d="M1297.01 794.852C1251.35 775.866 1198.97 797.549 1179.98 843.209C1161 888.869 1182.56 941.301 1228.22 960.287C1273.96 979.307 1326.43 957.659 1345.42 911.999C1364.4 866.339 1342.75 813.872 1297.01 794.852ZM1235.18 943.777C1198.62 928.575 1181.32 886.649 1196.53 850.088C1211.73 813.527 1253.65 796.227 1290.22 811.43C1326.78 826.632 1344.08 868.559 1328.87 905.12C1313.67 941.681 1271.75 958.98 1235.18 943.777ZM1295.09 881.37C1301.96 884.225 1309.8 880.987 1312.66 874.122C1315.51 867.256 1312.27 859.41 1305.41 856.555C1298.54 853.7 1290.7 856.938 1287.84 863.803C1284.99 870.669 1288.23 878.515 1295.09 881.37ZM1237.19 857.294C1244.05 860.148 1251.9 856.911 1254.76 850.045C1257.61 843.18 1254.37 835.333 1247.51 832.478C1240.64 829.624 1232.79 832.861 1229.94 839.727C1227.09 846.592 1230.32 854.439 1237.19 857.294ZM1243.78 923.098C1260.57 930.08 1279.03 926.987 1292.53 916.689C1295.24 914.612 1294.7 910.313 1291.47 908.971L1220.17 879.323C1217.03 878.016 1213.51 880.63 1213.95 884.013C1216.17 900.846 1226.99 916.116 1243.78 923.098Z" fill="#FFD336"/>
</g>
<g opacity="0.2" clip-path="url(#clip1_3_105)">
<path d="M104.424 387.561C60.0697 409.425 41.8974 463.127 63.7613 507.481C85.6253 551.835 139.287 570.128 183.641 548.264C228.075 526.36 246.328 472.618 224.464 428.264C202.6 383.91 148.858 365.657 104.424 387.561ZM175.8 532.154C140.284 549.661 97.3386 535.075 79.8316 499.56C62.3246 464.044 76.9105 421.099 112.426 403.592C147.941 386.085 190.887 400.671 208.394 436.186C225.901 471.701 211.315 514.647 175.8 532.154ZM168.275 445.975C174.944 442.687 177.674 434.65 174.386 427.981C171.099 421.311 163.061 418.582 156.392 421.869C149.723 425.157 146.993 433.194 150.281 439.863C153.568 446.532 161.606 449.262 168.275 445.975ZM112.029 473.701C118.698 470.413 121.428 462.376 118.14 455.707C114.853 449.037 106.815 446.308 100.146 449.595C93.4771 452.883 90.7473 460.92 94.0348 467.589C97.3223 474.258 105.36 476.988 112.029 473.701ZM165.897 512.066C182.209 504.025 192.034 488.096 193.172 471.155C193.391 467.751 189.799 465.327 186.666 466.872L117.403 501.014C114.35 502.519 114.004 506.884 116.838 508.783C130.967 518.198 149.586 520.106 165.897 512.066Z" fill="#FFD336"/>
</g>
<g opacity="0.2" clip-path="url(#clip2_3_105)">
<path d="M242.436 1093.27C204.556 1125.06 199.679 1181.54 231.466 1219.42C263.252 1257.3 319.725 1262.3 357.605 1230.52C395.554 1198.67 400.499 1142.13 368.713 1104.25C336.926 1066.37 280.385 1061.43 242.436 1093.27ZM346.157 1216.74C315.825 1242.19 270.643 1238.24 245.19 1207.9C219.738 1177.57 223.69 1132.39 254.022 1106.94C284.353 1081.49 329.536 1085.44 354.988 1115.77C380.44 1146.1 376.488 1191.28 346.157 1216.74ZM318.349 1134.82C324.045 1130.04 324.784 1121.58 320.005 1115.89C315.225 1110.19 306.769 1109.45 301.074 1114.23C295.378 1119.01 294.638 1127.47 299.418 1133.16C304.197 1138.86 312.653 1139.6 318.349 1134.82ZM270.312 1175.13C276.008 1170.35 276.748 1161.89 271.968 1156.2C267.189 1150.5 258.733 1149.76 253.037 1154.54C247.341 1159.32 246.602 1167.78 251.381 1173.47C256.161 1179.17 264.617 1179.91 270.312 1175.13ZM331.761 1199.58C345.691 1187.89 351.446 1170.08 348.521 1153.36C347.925 1150 343.859 1148.5 341.183 1150.74L282.029 1200.38C279.422 1202.57 280.125 1206.89 283.329 1208.06C299.292 1213.84 317.83 1211.27 331.761 1199.58Z" fill="#FFD336"/>
</g>
<g opacity="0.2" clip-path="url(#clip3_3_105)">
<path d="M1291.11 100.987C1264.4 142.604 1276.54 197.981 1318.16 224.691C1359.78 251.4 1415.18 239.377 1441.89 197.761C1468.65 156.07 1456.55 100.617 1414.93 73.9074C1373.32 47.1978 1317.86 59.296 1291.11 100.987ZM1426.86 188.008C1405.47 221.331 1361.16 230.999 1327.84 209.612C1294.51 188.225 1284.85 143.913 1306.23 110.589C1327.62 77.2664 1371.93 67.5987 1405.26 88.9857C1438.58 110.373 1448.25 154.685 1426.86 188.008ZM1375.94 118.073C1379.96 111.816 1378.15 103.523 1371.89 99.5064C1365.63 95.4903 1357.34 97.2997 1353.33 103.557C1349.31 109.815 1351.12 118.108 1357.38 122.124C1363.63 126.14 1371.93 124.331 1375.94 118.073ZM1342.07 170.847C1346.09 164.59 1344.28 156.297 1338.02 152.281C1331.76 148.264 1323.47 150.074 1319.45 156.331C1315.44 162.589 1317.25 170.882 1323.51 174.898C1329.76 178.914 1338.06 177.105 1342.07 170.847ZM1408.01 175.912C1417.83 160.607 1418.03 141.892 1410.26 126.794C1408.69 123.765 1404.37 123.542 1402.48 126.483L1360.77 191.47C1358.93 194.335 1360.89 198.252 1364.3 198.416C1381.26 199.19 1398.19 191.216 1408.01 175.912Z" fill="#FFD336"/>
</g>
<defs>
<clipPath id="clip0_3_105">
<rect width="215" height="215" fill="white" transform="translate(1204.55 737) rotate(22.5782)"/>
</clipPath>
<clipPath id="clip1_3_105">
<rect width="215" height="215" fill="white" transform="translate(0 419.061) rotate(-26.2407)"/>
</clipPath>
<clipPath id="clip2_3_105">
<rect width="215" height="215" fill="white" transform="translate(148.502 1148.7) rotate(-40.0011)"/>
</clipPath>
<clipPath id="clip3_3_105">
<rect width="215" height="215" fill="white" transform="translate(1217.92 181.855) rotate(-57.3074)"/>
</clipPath>
</defs>
</svg>
